<svg xmlns="http://www.w3.org/2000/svg" width="24" height="24" viewBox="0 0 164 164" preserveAspectRatio="xMinYMid meet"
    xmlns:v="https://vecta.io/nano">
    <defs>
        <clipPath id="A">
            <path d="M0 0h164v164H0z" fill="none" />
        </clipPath>
    </defs>
    <path d="M0 0h164v164H0z" fill="#BAD9D0" />
    <g clip-path="url(#A)">
        <g fill="#071c1c" fill-rule="evenodd">
            <path
                d="M135 249.38l-16.58-116.61c-.56-3.94-3.92-6.86-7.9-6.86H97.2l15.5 126.16 22.3-2.69zm-106.48 0l16.56-116.61a7.99 7.99 0 0 1 7.9-6.86H66.3L50.82 252.07l-22.3-2.69z" />
        </g>
        <g fill="#008bc8">
            <path
                d="M69.92 113.1h23.59v12.81H69.92zM140 72.66c-8 0-14.5 6.49-14.5 14.49s6.5 14.49 14.5 14.49 14.48-6.49 14.48-14.49S148 72.66 140 72.66" />
        </g>
        <path d="M24.06 72.52a14.54 14.54 0 0 0 0 29.1 14.54 14.54 0 0 0 0-29.1" fill="#00a5f1" />
        <path d="M24.06,82.2c-2.68,0-4.88,2.18-4.88,4.87s2.2,4.87,4.88,4.87,4.88-2.18,4.88-4.87-2.18-4.87-4.88-4.87"
            fill="#008bc8" />
        <path
            d="M29.8,48.79c0-13.98,11.24-25.34,25.1-25.34h54.26c13.86,0,25.1,11.35,25.1,25.34v43.02c0,13.98-11.24,25.33-25.1,25.33H54.9c-13.86,0-25.1-11.35-25.1-25.33V48.79Z"
            fill="#00a5f1" />
        <g fill="#008bc8">
            <path
                d="M29.8 59.15l16.18-18.17-8.1-2.02-8.08 2.02v18.17zm104.46.03L118.4 41.01l7.1-2.05 8.76 2.05v18.17z" />
            <path
                d="M34.7 28.16c2.98-3.01 7.04-4.7 11.26-4.7h72.14c4.22 0 8.28 1.69 11.26 4.7s4.9 7.09 4.9 11.35v1.47H29.8v-1.47c0-4.26 1.92-8.34 4.9-11.35m13.96 19.56h20.89v8.76H48.66zm45.54.1h22.32v9.15H94.2z" />
        </g>
        <g fill="#1db9ff">
            <rect x="93.82" y="96.25" width="22.92" height="8.76" rx="4.38" />
            <path
                d="M65.84 105.01c2.42 0 4.4-1.96 4.4-4.38h0c0-2.42-1.98-4.38-4.4-4.38H51.7a4.38 4.38 0 0 0-4.38 4.38h0a4.38 4.38 0 0 0 4.38 4.38h14.14z" />
        </g>
        <g fill="#008bc8">
            <path d="M82.04 88.84h3.05v6.07h-3.05z" />
            <path
                d="M79,91.87c0,1.68,1.36,3.03,3.04,3.03s3.02-1.36,3.02-3.03-1.36-3.03-3.02-3.03-3.04,1.36-3.04,3.03" />
        </g>
        <path d="M82.36,91.87c0,1.68,1.36,3.03,3.04,3.03s3.04-1.36,3.04-3.03-1.36-3.03-3.04-3.03-3.04,1.36-3.04,3.03"
            fill="#1db9ff" />
        <path
            d="M82.02 107.04c-1.34 0-2.62-.55-3.56-1.53-.96-.98-1.48-2.31-1.48-3.7v-1.12c0-.21.16-.38.36-.38h9.38c.2 0 .36.17.36.38v1.12c0 1.39-.52 2.72-1.48 3.7-.94.98-2.22 1.53-3.56 1.53h-.02z"
            fill="#006791" />
        <g fill="#fff">
            <path
                d="M116.68 67.05c0-3.23-2.56-5.84-5.72-5.84H99.54c-3.16 0-5.72 2.62-5.72 5.84v23.36c0 3.23 2.56 5.85 5.72 5.85h11.42c3.16 0 5.72-2.62 5.72-5.85V67.05zm-45.84 0c0-3.23-2.56-5.84-5.7-5.84H53.7c-3.14 0-5.7 2.62-5.7 5.84v23.36c0 3.23 2.56 5.85 5.7 5.85h11.44c3.14 0 5.7-2.62 5.7-5.85V67.05z" />
        </g>
        <g fill="#071c1c">
            <path
                d="M60.76 90.15h6.16c2.18 0 3.92-1.76 3.92-3.92v-21.1c0-2.17-1.74-3.92-3.92-3.92h-6.16c-2.18 0-3.94 1.76-3.94 3.92v21.1c0 2.17 1.76 3.92 3.94 3.92m45.82 0h6.18a3.93 3.93 0 0 0 3.92-3.92v-21.1a3.92 3.92 0 0 0-3.92-3.92h-6.18a3.93 3.93 0 0 0-3.92 3.92v21.1a3.92 3.92 0 0 0 3.92 3.92" />
            <path
                d="M113.46 61.2h38.22l.22-8.74c.18-7.65-2.74-15.06-8.08-20.54s-12.68-8.57-20.34-8.57h0l-69.42.1c5.54 0 10.58 3.19 12.92 8.17 8.38 17.96 18.32 29.48 38.3 29.57h8.18z"
                fill-rule="evenodd" />
            <path
                d="M57.58 12h77.36c0 3.04-1.22 5.95-3.4 8.1s-5.14 3.36-8.22 3.36l-36.24 2.02-32.68-2.02h-8.42c0-6.33 5.2-11.46 11.6-11.46" />
        </g>
        <path d="M53.4 125.91h56.62l5.38 88.29H48l5.4-88.29z" fill="#303248" />
        <g fill="#071c1c" fill-rule="evenodd">
            <path d="M98.46 160.28H63.08l-.12 10.14h35.38l.12-10.14zm0-20.22H63.08l-.12 10.14h35.38l.12-10.14z" />
        </g>
    </g>
</svg>