<svg xmlns="http://www.w3.org/2000/svg" xmlns:xlink="http://www.w3.org/1999/xlink" width="24" height="24"
    viewBox="0 0 164 164" preserveAspectRatio="xMinYMid meet" xmlns:v="https://vecta.io/nano">
    <style>
        <![CDATA[
        .B {
            fill: #071c1c
        }

        .C {
            fill: #ff9a0d
        }

        .D {
            fill-rule: evenodd
        }

        .E {
            fill: #eb7e07
        }

        .F {
            clip-rule: evenodd
        }
        ]]>
    </style>
    <defs>
        <clipPath id="A">
            <path d="M0 0h164v164H0z" fill="none" />
        </clipPath>
        <clipPath id="B">
            <path d="M31.7 261.13l16.1-113.49c.92-6.43 6.42-11.2 12.92-11.19l6.82.01-17.98 125.71-17.86-1.03z"
                fill="none" class="F" />
        </clipPath>
        <clipPath id="C">
            <path d="M133.68 261.13l-16.1-113.49c-.92-6.43-6.42-11.2-12.92-11.19l-6.82.01 17.98 125.71 17.86-1.03z"
                fill="none" class="F" />
        </clipPath>
        <path id="D"
            d="M63.18 40.2a2.99 2.99 0 0 0-2.98-2.99c-.8 0-1.56.31-2.12.87a2.99 2.99 0 0 0-.88 2.11v16.89h5.98V40.19z" />
    </defs>
    <path d="M0 0h164v164H0z" fill="#83DAFF" />
    <g clip-path="url(#A)">
        <path d="M31.7 261.13l16.1-113.49c.92-6.43 6.42-11.2 12.92-11.19l6.82.01-17.98 125.71-17.86-1.03z"
            class="C D" />
        <g clip-path="url(#B)">
            <path d="M37.626 186.853l8.245-57.643 26.599 3.805-8.245 57.643z" fill="#efdfc7" />
        </g>
        <path d="M133.68 261.13l-16.1-113.49c-.92-6.43-6.42-11.2-12.92-11.19l-6.82.01 17.98 125.71 17.86-1.03z"
            class="C D" />
        <g clip-path="url(#C)">
            <path d="M92.925 132.992l26.599-3.805 8.245 57.643-26.599 3.805z" fill="#efdfc7" />
        </g>
        <g class="D">
            <path
                d="M146.82 72.58c0-10.47-4.16-20.51-11.56-27.92a39.48 39.48 0 0 0-27.92-11.56H56.72c-10.46 0-20.52 4.16-27.92 11.56-7.4 7.41-11.56 17.45-11.56 27.92v36.99a22.73 22.73 0 0 0 6.66 16.07c4.26 4.26 10.04 6.66 16.08 6.66v-9.64c2.06 5.78 7.54 9.64 13.68 9.64h56.68c6.14 0 11.62-3.86 13.68-9.64v9.64a22.8 22.8 0 0 0 22.8-22.8V72.58z"
                class="B" />
            <path
                d="M17.18 67.28c0-17.92 13.02-33.18 30.7-36.01 4.24-.68 8.04-3.04 10.52-6.55l1.1-1.57A26.39 26.39 0 0 1 81.04 12h1.92a26.39 26.39 0 0 1 21.54 11.15l1.1 1.57c2.48 3.51 6.28 5.87 10.52 6.55 17.68 2.83 30.7 18.1 30.7 36.01v34.17H17.18V67.28z"
                fill="#c7460f" />
            <g fill="#a8390d">
                <path
                    d="M33.3 52.03a2.99 2.99 0 0 0-.88-2.11c-.56-.56-1.32-.87-2.12-.87a2.94 2.94 0 0 0-2.1.87 2.99 2.99 0 0 0-.88 2.11v38.84h5.98V52.03zm98.62 0a2.99 2.99 0 0 1 .88-2.11c.56-.56 1.32-.87 2.1-.87s1.56.31 2.12.87a2.99 2.99 0 0 1 .88 2.11v38.84h-5.98V52.03zm-83.68-8.15a2.99 2.99 0 0 0-.88-2.11c-.56-.56-1.32-.87-2.12-.87a2.94 2.94 0 0 0-2.1.87 2.99 2.99 0 0 0-.88 2.11v25.16h5.98V43.88zm68.74 0a2.99 2.99 0 0 1 .88-2.11c.56-.56 1.32-.87 2.1-.87s1.56.31 2.12.87a2.99 2.99 0 0 1 .88 2.11v25.16h-5.98V43.88z" />
                <use xlink:href="#D" />
                <path
                    d="M78.12 40.2a2.99 2.99 0 0 0-2.98-2.99c-.8 0-1.56.31-2.12.87a2.99 2.99 0 0 0-.88 2.11v16.89h5.98V40.19zm14.94 0a2.99 2.99 0 0 0-2.98-2.99c-.8 0-1.56.31-2.12.87s-.86 1.32-.86 2.11v16.89h5.96V40.19zm14.94 0c0-1.65-1.32-2.99-2.98-2.99-.8 0-1.56.31-2.12.87s-.86 1.32-.86 2.11v16.89H108V40.19z" />
            </g>
        </g>
        <path d="M68.92 120.94H95.1v23.77H68.92z" class="E" />
        <g class="D">
            <path
                d="M132.98 70.33a19.33 19.33 0 0 0-19.32-19.32H50.34a19.33 19.33 0 0 0-19.32 19.32v36.45a19.33 19.33 0 0 0 19.32 19.32h63.32a19.33 19.33 0 0 0 19.32-19.32V70.33z"
                class="C" />
            <path d="M88.88,95.79h-7.22c-1.72,0-3.1,1.39-3.1,3.1s1.38,3.1,3.1,3.1h7.22v-6.2Z" class="E" />
            <path d="M88.92,95.79c1.7,0,3.1,1.39,3.1,3.1s-1.4,3.1-3.1,3.1-3.1-1.39-3.1-3.1,1.38-3.1,3.1-3.1Z"
                fill="#ffbb4c" />
            <path
                d="M84.4 111.76a3.95 3.95 0 0 0 2.8-1.16c.76-.74 1.16-1.75 1.16-2.81h0a.87.87 0 0 0-.22-.58c-.16-.15-.36-.24-.58-.24h-9.94c-.22 0-.42.09-.58.24a.78.78 0 0 0-.24.57h0c0 1.05.42 2.06 1.16 2.81.74.74 1.76 1.16 2.82 1.16h3.62z"
                class="E" />
            <g fill="#ffb715">
                <path
                    d="M118.52 111.98c0-2.47-2.02-4.48-4.48-4.48H99.56c-2.46 0-4.48 2.01-4.48 4.48s2.02 4.48 4.48 4.48h14.48c2.46 0 4.48-2.01 4.48-4.48zm-49.6 0c0-2.47-2.02-4.48-4.48-4.48H49.96c-2.46 0-4.48 2.01-4.48 4.48s2.02 4.48 4.48 4.48h14.48c2.46 0 4.48-2.01 4.48-4.48z" />
            </g>
            <g fill="#fff">
                <path
                    d="M45.36 77.94c0-3.26 2.64-5.91 5.88-5.91h11.78c3.26 0 5.9 2.65 5.9 5.91v23.65c0 3.26-2.64 5.91-5.9 5.91H51.24c-3.24 0-5.88-2.65-5.88-5.91V77.94zm49.72 0c0-3.26 2.64-5.91 5.9-5.91h11.78c3.24 0 5.88 2.65 5.88 5.91v23.65c0 3.26-2.64 5.91-5.88 5.91h-11.78c-3.26 0-5.9-2.65-5.9-5.91V77.94z" />
            </g>
            <g class="B">
                <path
                    d="M68.92 81.77c0-1.77-1.44-3.2-3.22-3.2h-5.98c-1.78 0-3.22 1.43-3.22 3.2v17.02c0 1.77 1.44 3.2 3.22 3.2h5.98c1.78 0 3.22-1.43 3.22-3.2V81.77z" />
            </g>
        </g>
        <path
            d="M109.44 78.57h6c1.77 0 3.2 1.43 3.2 3.2v17.02c0 1.77-1.43 3.2-3.2 3.2h-6c-1.77 0-3.2-1.43-3.2-3.2V81.77c0-1.77 1.43-3.2 3.2-3.2z"
            class="B" />
        <g class="D">
            <path
                d="M132.98 69.37c0-5.05-2-9.89-5.58-13.46a19.06 19.06 0 0 0-13.46-5.57l-63.92.07c-10.5.01-19 8.53-19 19.03v21.53L69.6 62.04h11.72l.68-.69.68.69H94.4l38.58 28.93v-21.6z"
                class="B" />
            <path d="M56.16 87.18C70.44 87.18 82 75.61 82 61.34H56.16v25.84z" class="B" />
            <path d="M107.84 87.18C93.56 87.18 82 75.61 82 61.34h25.84v25.84z" class="B" />
            <path
                d="M24.68,80.31c8.42,0,15.28,6.85,15.28,15.28s-6.86,15.28-15.28,15.28-15.28-6.85-15.28-15.28,6.84-15.28,15.28-15.28Z"
                class="C" />
            <path d="M24.68,90.47c2.82,0,5.1,2.29,5.1,5.12s-2.28,5.12-5.1,5.12-5.12-2.29-5.12-5.12,2.28-5.12,5.12-5.12Z"
                class="E" />
            <path
                d="M139.32,80.31c8.44,0,15.28,6.85,15.28,15.28s-6.84,15.28-15.28,15.28-15.28-6.85-15.28-15.28,6.86-15.28,15.28-15.28Z"
                class="C" />
            <path d="M139.32 90.4a5.11 5.11 0 1 1 0 10.24c-2.84 0-5.1-2.29-5.1-5.12s2.28-5.12 5.1-5.12z" class="E" />
            <path d="M106.8 136.44H57.2l-7.58 90.25h64.76l-7.58-90.25z" fill="#fff" />
            <path
                d="M82 156.68l4.36 7.35 8.34 1.87-5.64 6.42.78 8.51-7.84-3.39-7.84 3.39.78-8.51-5.64-6.42 8.34-1.87 4.36-7.35z"
                fill="#ffe61c" />
        </g>
    </g>
</svg>