<svg xmlns="http://www.w3.org/2000/svg" xmlns:xlink="http://www.w3.org/1999/xlink" width="24" height="24"
    viewBox="0 0 164 164" preserveAspectRatio="xMinYMid meet" xmlns:v="https://vecta.io/nano">
    <style>
        <![CDATA[
        .B {
            fill-rule: evenodd
        }

        .C {
            fill: #071c1c
        }

        .D {
            fill: #f7d811
        }

        .E {
            fill: #f1b618
        }

        .F {
            clip-rule: evenodd
        }

        .G {
            fill: #284496
        }
        ]]>
    </style>
    <defs>
        <clipPath id="A">
            <path d="M0 0h164v164H0z" fill="none" />
        </clipPath>
        <clipPath id="B">
            <path d="M64.7 126.89h-4.02a6.02 6.02 0 0 0-5.71 4.12l-9.77 29.31 16.71 2.79 2.79-36.21z" fill="none"
                class="F" />
        </clipPath>
        <clipPath id="C">
            <path d="M103.33 126.89h4.02a6.02 6.02 0 0 1 5.71 4.12l9.77 29.31-16.71 2.79-2.79-36.21z" fill="none"
                class="F" />
        </clipPath>
        <clipPath id="D">
            <path d="M61.91 126.89h44.57l11.14 111.42H86.98v-19.49h-5.57v19.49H50.77l11.14-111.42z" fill="none"
                class="F" />
        </clipPath>
        <path id="E" d="M98.51,120.19l11.47-4.47v13.76h-2.3c-2.45,0-4.8-.98-6.53-2.73-1.72-1.75-2.68-4.11-2.64-6.56Z" />
        <path id="F" d="M70.17,120.19l-11.47-4.47v13.76h2.3c2.45,0,4.8-.98,6.53-2.73,1.72-1.75,2.67-4.11,2.64-6.56Z" />
        <path id="G"
            d="M70.27 85.11h5.57a2.79 2.79 0 0 1 2.79 2.79v13.93a2.79 2.79 0 0 1-2.79 2.79h-5.57a2.79 2.79 0 0 1-2.79-2.79V87.9a2.78 2.78 0 0 1 2.78-2.78z" />
    </defs>
    <path d="M0 0h164v164H0z" fill="#f6811a" />
    <g clip-path="url(#A)">
        <g class="B">
            <path d="M50.82 154.75l-13.98 69.64 27.86 5.57-3.28-72.43-10.6-2.78z" class="D" />
            <path
                d="M173.42 94.29c0-10.32-6.28-19.59-15.85-23.43l-2.15-.86c-6.21-2.49-11.29-7.78-14.27-13.78l-2.69-5.41c-5.66-11.4-17.29-18.61-30.02-18.61H55.66c-12.71 0-24.32 7.19-29.99 18.56l-2.73 5.47c-2.99 6-8.08 11.29-14.3 13.78l-2.19.88A25.23 25.23 0 0 0-9.41 94.32h0c0 14.93 12.1 27.03 27.02 27.03h128.78a27.02 27.02 0 0 0 19.11-7.92 27.04 27.04 0 0 0 7.92-19.11h0z"
                class="C" />
        </g>
        <path d="M70.35 110.18h27.97v22.64H70.35z" class="E" />
        <g class="B">
            <g class="C">
                <use xlink:href="#E" />
                <use xlink:href="#F" />
                <path
                    d="M110.09 120.19l11.47-4.47v13.76h-2.3a9.18 9.18 0 0 1-6.53-2.73c-1.72-1.75-2.68-4.11-2.64-6.56zm-51.5 0l-11.47-4.47v13.76h2.3a9.18 9.18 0 0 0 6.53-2.73c1.72-1.75 2.67-4.11 2.64-6.56zm63.09 0l11.47-4.47v13.76h-2.3a9.18 9.18 0 0 1-6.53-2.73c-1.72-1.75-2.68-4.11-2.64-6.56zm-74.68 0l-11.47-4.47v13.76h2.3a9.18 9.18 0 0 0 6.53-2.73c1.72-1.75 2.67-4.11 2.64-6.56zm86.26 0l11.47-4.47v13.76h-2.3a9.18 9.18 0 0 1-6.53-2.73c-1.72-1.75-2.67-4.11-2.64-6.56zm-97.84 0l-11.47-4.47v13.76h2.3a9.14 9.14 0 0 0 6.52-2.73c1.72-1.75 2.68-4.11 2.64-6.56z" />
            </g>
            <path
                d="M134.45,78.15c7.62,0,13.82,6.19,13.82,13.81s-6.19,13.82-13.82,13.82-13.82-6.19-13.82-13.82,6.19-13.81,13.82-13.81Z"
                class="E" />
        </g>
        <rect x="36.84" y="60.04" width="97.49" height="58.5" rx="15.23" class="D" />
        <g class="B">
            <g fill="#ffe82e">
                <path
                    d="M104.8 115.75c-2.42 0-4.39-1.87-4.39-4.18h0c0-2.31 1.96-4.18 4.39-4.18h14.13c2.42 0 4.39 1.87 4.39 4.18h0c0 2.31-1.96 4.18-4.39 4.18H104.8zm-44.69 0c-2.42 0-4.39-1.87-4.39-4.18h0c0-2.31 1.96-4.18 4.39-4.18h14.13c2.42 0 4.39 1.87 4.39 4.18h0c0 2.31-1.97 4.18-4.39 4.18H60.11z" />
            </g>
            <path
                d="M28.6,79.25c7.63,0,13.82,6.19,13.82,13.82s-6.19,13.81-13.82,13.81-13.81-6.19-13.81-13.81,6.19-13.82,13.81-13.82Z"
                class="D" />
        </g>
        <g class="E">
            <circle cx="28.6" cy="93.06" r="4.63" />
            <path d="M86.97 101.82a2.77 2.77 0 0 1-2.77-2.77h0a2.77 2.77 0 0 1 2.77-2.77h3.8v5.54h-3.8z" class="B" />
        </g>
        <circle cx="91.17" cy="99.06" r="2.77" fill="#ffe82e" />
        <path d="M93.72 104.61a5.63 5.63 0 0 1 .17 1.36 5.54 5.54 0 1 1-11.08 0c0-.46.06-.91.17-1.36h10.75z"
            class="B E" />
        <path d="M56.34 54.22h66.85v22.53H56.34z" class="C" />
        <g class="B">
            <path d="M100.91 77.49l-5.54 4.75-5.55-4.75 5.55-11.88 5.54 11.88z" class="D" />
            <g class="C">
                <path
                    d="M129.11 43.22s5.27-21.89 11.08-27.71c4.59-4.59 12.04-4.59 16.63 0s4.59 12.04 0 16.63c-5.82 5.82-27.71 11.08-27.71 11.08zm-94.15 0s-5.28-21.94-11.11-27.77c-4.6-4.6-12.07-4.6-16.66 0s-4.6 12.07 0 16.67c5.83 5.83 27.77 11.11 27.77 11.11z" />
            </g>
        </g>
        <path
            d="M61.91 82.33h11.14c3.08 0 5.57 2.5 5.57 5.57v13.93c0 3.08-2.5 5.57-5.57 5.57H61.91a5.58 5.58 0 0 1-5.57-5.57V87.9a5.58 5.58 0 0 1 5.57-5.57z"
            fill="#fff" />
        <use xlink:href="#G" class="C" />
        <path
            d="M106.48 82.33h11.14c3.08 0 5.57 2.5 5.57 5.57v13.93c0 3.08-2.5 5.57-5.57 5.57h-11.14a5.58 5.58 0 0 1-5.57-5.57V87.9a5.58 5.58 0 0 1 5.57-5.57z"
            fill="#fff" />
        <path
            d="M114.84 85.11h5.57a2.79 2.79 0 0 1 2.79 2.79v13.93a2.79 2.79 0 0 1-2.79 2.79h-5.57a2.79 2.79 0 0 1-2.79-2.79V87.9a2.78 2.78 0 0 1 2.78-2.78z"
            class="C" />
        <path d="M64.7 126.89h-4.02a6.02 6.02 0 0 0-5.71 4.12l-9.77 29.31 16.71 2.79 2.79-36.21z" class="B G" />
        <g clip-path="url(#B)">
            <circle cx="46.43" cy="143.61" r="11.14" fill="#ff9c11" />
        </g>
        <g class="B">
            <path d="M117.21 154.75l13.98 69.64-27.86 5.57 3.28-72.43 10.6-2.78z" class="D" />
            <path d="M103.33 126.89h4.02a6.02 6.02 0 0 1 5.71 4.12l9.77 29.31-16.71 2.79-2.79-36.21z" class="G" />
        </g>
        <g clip-path="url(#C)" class="B">
            <path
                d="M121.6,132.46c-6.15,0-11.14,4.99-11.14,11.14s4.99,11.14,11.14,11.14,11.14-4.99,11.14-11.14-4.99-11.14-11.14-11.14Z"
                fill="#ff9c11" />
        </g>
        <path d="M61.91 126.89h44.57l11.14 111.42H86.98v-19.49h-5.57v19.49H50.77l11.14-111.42z" fill="#1e3272"
            class="B" />
        <g clip-path="url(#D)">
            <path
                d="M84.2 140.82h13.93a2.78 2.78 0 0 1 2.78 2.78v5.57a2.79 2.79 0 0 1-2.79 2.79H84.19a2.79 2.79 0 0 1-2.79-2.79v-5.57a2.78 2.78 0 0 1 2.78-2.78z"
                fill="#196969" />
            <g class="B">
                <path
                    d="M96.91 143.81l-3.2 5.38-6.11 1.38 4.14 4.7-.58 6.23 5.75-2.48 5.75 2.48-.59-6.23 4.14-4.7-6.11-1.38-3.19-5.38z"
                    fill="#bd387c" />
                <path d="M97.99 132.72a2.28 2.28 0 1 0 0 4.56 2.28 2.28 0 1 0 0-4.56z" class="G" />
            </g>
        </g>
    </g>
</svg>