<svg xmlns="http://www.w3.org/2000/svg" xmlns:xlink="http://www.w3.org/1999/xlink" width="24" height="24"
    viewBox="0 0 164 164" preserveAspectRatio="xMinYMid meet" xmlns:v="https://vecta.io/nano">
    <style>
        <![CDATA[
        .B {
            fill: #071c1c
        }

        .C {
            fill-rule: evenodd
        }

        .D {
            fill: #cd639f
        }

        .E {
            fill: #ffba0c
        }

        .F {
            fill: #ffcb45
        }
        ]]>
    </style>
    <defs>
        <clipPath id="A">
            <path d="M0 0h164v164H0z" fill="none" />
        </clipPath>
        <clipPath id="B">
            <path
                d="M107.06 113.97l-36.23-.02a21.81 21.81 0 0 0-20.17 13.52l-.29.71a55.51 55.51 0 0 0-4 25.13l2.13 29.06h66.45l-7.89-68.4z"
                clip-rule="evenodd" fill="none" />
        </clipPath>
        <clipPath id="C">
            <path d="M191.79 195.91h164v164h-164z" fill="none" />
        </clipPath>
        <path id="D"
            d="M50.02,96.87c0,2.18,1.77,3.95,3.95,3.95h7.89c2.18,0,3.95-1.77,3.95-3.95s-1.77-3.95-3.95-3.95h-7.89c-2.18,0-3.95,1.77-3.95,3.95Z" />
        <path id="E" d="M80.19 124.22a2.37 2.37 0 1 1 0 4.74 2.37 2.37 0 1 1 0-4.74z" />
    </defs>
    <path d="M0 0h164v164H0z" fill="#1dbb9b" />
    <g clip-path="url(#A)">
        <g class="C">
            <path
                d="M60.7 113.97c-12.16 0-22.69 8.43-25.34 20.3l-16.83 75.29c-.27 1.2-.03 2.46.66 3.48s1.78 1.71 2.99 1.9l22.16 3.49c2.32.37 4.53-1.14 5.05-3.43l22.62-101.03H60.7z"
                class="E" />
            <path
                d="M157.01 71.87c0-15.35-6.1-30.07-16.95-40.92S114.49 14 99.14 14h-39.2a50.21 50.21 0 0 0-35.53 14.72A50.25 50.25 0 0 0 9.69 64.25h0a50.21 50.21 0 0 0 14.72 35.53 50.25 50.25 0 0 0 35.53 14.72h6.44l13.67 25.78h19.09c15.35 0 30.07-6.1 40.92-16.95s16.95-25.57 16.95-40.92V71.88z"
                class="B" />
            <path
                d="M36 63.97c7.27 0 13.17 5.9 13.17 13.17S43.27 90.31 36 90.31s-13.17-5.9-13.17-13.17S28.73 63.97 36 63.97z"
                class="D" />
        </g>
        <circle cx="128.07" cy="150.79" r="15.78" class="B" />
        <path
            d="M43.96 129.26a24.06 24.06 0 0 1 22.4-15.29h.37v134.96c0 1.88-.75 3.68-2.08 5.01s-3.13 2.08-5.01 2.08H33.2c-.99 0-1.82-.73-1.94-1.71-3.33-26.63-1.15-53.67 6.41-79.42l.38-1.31c.34-1.15.53-2.34.57-3.55l.56-17.5c.26-7.97 1.87-15.84 4.78-23.27h0z"
            class="C F" />
        <path d="M66.9 104.62h25.98v13.43H66.9z" class="D" />
        <path
            d="M55.81,40.31h44.72c9.44,0,17.1,7.66,17.1,17.1v34.2c0,9.44-7.66,17.1-17.1,17.1H55.81c-9.44,0-17.1-7.66-17.1-17.1V57.41c0-9.44,7.66-17.1,17.1-17.1Z"
            fill="#f894cd" />
        <path
            d="M41.15 76.09c0-1.67 1.36-3.03 3.03-3.03h15.84c1.67 0 3.03 1.36 3.03 3.03s-1.36 3.02-3.03 3.02H44.18c-1.67 0-3.03-1.36-3.03-3.02z"
            class="B C" />
        <g fill="#fff">
            <path
                d="M91.85 61.35h10c2.76 0 5 2.24 5 5v21.57c0 2.76-2.24 5-5 5h-10c-2.76 0-5-2.24-5-5V66.35c0-2.76 2.24-5 5-5zm-38.93.14h10c2.76 0 5 2.24 5 5v21.43c0 2.76-2.24 5-5 5h-10c-2.76 0-5-2.24-5-5V66.49c0-2.76 2.24-5 5-5z" />
        </g>
        <g fill="#ffacf1" class="C">
            <use xlink:href="#D" />
            <path
                d="M88.96,96.87c0,2.18,1.77,3.95,3.95,3.95h7.89c2.18,0,3.95-1.77,3.95-3.95s-1.77-3.95-3.95-3.95h-7.89c-2.18,0-3.95,1.77-3.95,3.95Z" />
        </g>
        <g class="B">
            <rect x="96.4" y="65.97" width="10.52" height="21.04" rx="2.9" />
            <rect x="57.46" y="65.97" width="10.52" height="21.04" rx="2.9" />
        </g>
        <g class="C">
            <g class="D">
                <path
                    d="M67.91 50.3c-6.99-1.88-13.62-1.69-19.99 0v7.37c6.17-1.29 12.79-1.42 19.99 0V50.3zm38.48 0c-6.98-1.88-13.62-1.69-19.99 0v7.37c6.17-1.29 12.79-1.42 19.99 0V50.3zm-31.2 35.69h4.54a2.37 2.37 0 0 1 2.37 2.37h0a2.37 2.37 0 0 1-2.37 2.37h-4.54V86z" />
            </g>
            <path d="M75.19 85.99a2.37 2.37 0 1 0 0 4.74 2.37 2.37 0 1 0 0-4.74z" fill="#ffacf1" />
            <g class="B">
                <path
                    d="M60.15 40.31h6.2c4.35 0 8.4 2.17 10.81 5.79l.82 1.23c1.9 2.85 5.1 4.56 8.52 4.56h3.91a8.68 8.68 0 0 1 8.68 8.68h0a8.68 8.68 0 0 0 8.68 8.68h23.41V36.62l-73.66-5.26 2.63 8.95z" />
                <path
                    d="M62.78,34.52c0-2.9-2.36-5.26-5.26-5.26s-5.26,2.36-5.26,5.26v15.78c0,2.9,2.36,5.26,5.26,5.26s5.26-2.36,5.26-5.26v-15.78Z" />
            </g>
            <path
                d="M107.06 113.97l-36.23-.02a21.81 21.81 0 0 0-20.17 13.52l-.29.71a55.51 55.51 0 0 0-4 25.13l2.13 29.06h66.45l-7.89-68.4z"
                fill="#faf3e8" />
        </g>
        <g clip-path="url(#B)">
            <path
                d="M68.57 125.79c1.14.22 1.85 1.45 1.44 2.57l-5.04 11.57c-1.65 3.89-2.25 8.22-1.71 12.42l3.87 29.77c.11 1.5-1.77 2.68-3 1.67-.34-.28-.53-.47-.67-1.2l-3.9-30c-.58-4.86.15-9.84 2.1-14.33l4.96-11.39c.53-1.06.99-1.18 1.95-1.09z"
                fill="#f6dbb3" />
        </g>
        <path d="M37.9 182.36h83.98l-17.26-68.42H55.15L37.9 182.36z" fill="#faf3e8" />
        <path
            d="M123.6,63.97c7.27,0,13.17,5.9,13.17,13.17s-5.9,13.17-13.17,13.17-13.17-5.9-13.17-13.17,5.9-13.17,13.17-13.17Z"
            fill="#f894cd" />
        <circle cx="123.6" cy="77.14" r="4.21" transform="matrix(.160226 -.98708 .98708 .160226 27.66 186.79)"
            class="D" />
        <path
            d="M124.35 125.88c-1.67-6.99-7.92-11.91-15.1-11.91h-9.06v134.96c0 1.88.75 3.68 2.08 5.01s3.13 2.08 5.01 2.08h17.91c3.57 0 6.59-2.66 7.03-6.21l1.88-15.06a267.86 267.86 0 0 0 1.93-41.8l-.62-19.34c-.04-1.18-.2-2.35-.47-3.49l-10.6-44.24z"
            class="F" />
        <g class="B">
            <use xlink:href="#E" />
            <path
                d="M80.19 134.08a2.37 2.37 0 1 1 0 4.74 2.37 2.37 0 1 1 0-4.74zm0 9.34a2.37 2.37 0 1 1 0 4.74 2.37 2.37 0 1 1 0-4.74z" />
        </g>
        <path
            d="M116.15 138.85c.59.18.64.41.72.78l10.62 75.9c.05.97-1.57 1.39-1.83.26l-10.62-75.9c-.06-1.11.4-1.12 1.11-1.03z"
            class="E" />
        <path
            d="M35.83 125.88c1.67-6.99 7.92-11.91 15.1-11.91h9.06v134.96c0 1.88-.75 3.68-2.08 5.01s-3.13 2.08-5.01 2.08H34.99c-3.58 0-6.59-2.66-7.03-6.21l-1.88-15.06a267.86 267.86 0 0 1-1.93-41.8l.62-19.34c.04-1.18.2-2.35.47-3.49l10.59-44.24z"
            class="C F" />
        <path
            d="M44.03 138.85c-.59.18-.64.41-.72.78l-10.62 75.9c-.05.97 1.57 1.39 1.83.26l10.62-75.9c.06-1.11-.4-1.12-1.11-1.03z"
            class="E" />
        <g class="C">
            <g class="B">
                <path d="M66.85 113.94c0 3.6 2.92 6.52 6.52 6.52s6.52-2.92 6.52-6.52H66.85z" />
                <path d="M79.89 113.94c0 3.6 2.92 6.52 6.52 6.52s6.52-2.92 6.52-6.52H79.89z" />
            </g>
            <path d="M81.22,93.52h-7.4v3.7c0,2.04,1.66,3.7,3.7,3.7h0c2.04,0,3.7-1.66,3.7-3.7v-3.7Z" class="D" />
            <path
                d="M102.99,76.09c0-1.67,1.36-3.03,3.03-3.03h4.19c1.67,0,3.03,1.36,3.03,3.03s-1.36,3.02-3.03,3.02h-4.19c-1.67,0-3.03-1.36-3.03-3.02Z"
                class="B" />
        </g>
    </g>
    <g clip-path="url(#C)">
        <path d="M96.6 142.34h340.68V685.3H96.6z" fill="#1dbb9b" opacity="0" />
    </g>
</svg>